<svg width="56" height="56" viewBox="0 0 56 56" fill="none" xmlns="http://www.w3.org/2000/svg">
<rect width="56" height="56" rx="28" fill="#F0F9F5"/>
<path d="M24.4999 34.4167H18.0833M21.5833 28H16.3333M24.4999 21.5833H18.6666M33.8333 17.5L26.1374 28.2742C25.7968 28.7511 25.6265 28.9895 25.6338 29.1883C25.6403 29.3614 25.7233 29.5226 25.8604 29.6285C26.0178 29.75 26.3109 29.75 26.8969 29.75H32.6666L31.4999 38.5L39.1958 27.7258C39.5364 27.2489 39.7067 27.0105 39.6993 26.8117C39.6929 26.6386 39.6099 26.4774 39.4728 26.3715C39.3153 26.25 39.0223 26.25 38.4363 26.25H32.6666L33.8333 17.5Z" stroke="#2A7E62" stroke-width="2" stroke-linecap="round" stroke-linejoin="round"/>
</svg>
